<svg width="256" height="256" viewBox="0 0 256 256" fill="none" xmlns="http://www.w3.org/2000/svg">
<g id="head">
<g id="Group 52">
<path id="Vector" d="M143.051 105.094C135.605 116.748 136.576 120.309 146.935 118.367C151.792 117.396 162.475 115.777 170.892 114.482C179.31 113.511 185.784 111.245 184.813 109.95C184.166 108.655 176.396 108.978 167.979 110.273C143.698 114.158 143.698 114.158 149.525 105.094C152.439 100.561 153.41 97 151.468 97C149.849 97 145.964 100.561 143.051 105.094Z" fill="black"/>
<path id="Vector_2" d="M108.735 102.503C108.735 103.475 111.001 107.36 114.238 110.597C120.713 118.043 117.152 118.043 92.5476 111.568C82.8353 108.978 73.7706 108.007 72.1519 109.626C70.8569 110.921 77.9792 113.834 88.3389 116.101C98.6987 118.043 110.353 120.633 114.238 121.604C124.598 124.518 127.188 115.453 118.771 107.036C111.648 99.9135 108.735 98.6186 108.735 102.503Z" fill="black"/>
<path id="Vector_3" d="M141.108 125.813C141.108 128.079 155.353 135.849 159.561 135.849C160.533 135.849 159.561 133.906 157.619 131.316C153.41 126.137 141.108 122.252 141.108 125.813Z" fill="black"/>
<path id="Vector_4" d="M106.468 134.23C94.8137 144.59 100.965 144.59 113.591 134.23C119.094 130.022 121.684 126.46 119.418 126.137C117.152 126.137 111.324 129.698 106.468 134.23Z" fill="black"/>
</g>
</g>
</svg>
