<svg width="256" height="256" viewBox="0 0 256 256" fill="none" xmlns="http://www.w3.org/2000/svg">
<g id="Frame 11">
<path id="Vector" d="M115.074 90.7387C114.767 98.7026 102.515 100.847 102.515 93.1891C102.515 90.7387 101.29 88.5946 99.7585 88.5946C98.227 88.5946 97.6144 91.3513 98.5333 94.7207C100.371 101.153 93.9387 103.297 88.4253 97.7837C86.5874 95.9459 85.3622 99.9278 85.0559 108.198C84.7496 120.45 85.3622 121.675 95.7766 126.576C101.903 129.639 116.605 132.702 128.551 133.621C146.623 134.847 151.524 133.928 160.101 128.72C170.515 121.982 172.659 113.099 165.614 107.279C163.164 105.135 161.938 100.847 162.857 96.8648C164.389 90.4324 164.389 90.4324 160.101 95.9459C155.506 101.459 146.623 100.234 149.993 94.4144C151.218 92.8828 150.299 91.6576 148.767 91.6576C146.929 91.6576 145.398 92.8828 145.398 94.7207C145.398 99.9278 136.821 98.09 135.29 92.2702C134.065 87.3693 133.758 87.3693 133.452 92.2702C132.839 100.847 118.443 99.6215 116.912 90.7387L115.686 84L115.074 90.7387ZM108.948 108.198C105.885 111.567 105.885 114.324 108.641 119.225C113.542 128.414 111.092 129.639 98.227 123.513C82.6055 115.856 84.4433 106.054 102.515 103.297C112.317 101.766 113.542 102.685 108.948 108.198ZM138.353 114.63C137.74 122.594 135.903 129.639 134.984 130.558C131.002 134.847 116.299 126.576 113.542 118.612C109.56 107.585 115.686 100.847 129.47 100.847H140.191L138.353 114.63ZM157.038 106.973C162.245 110.342 166.839 114.324 166.839 116.162C166.839 119.531 155.812 126.883 146.011 129.946C139.884 131.784 139.578 131.171 142.029 124.739C143.254 120.757 143.866 114.018 143.254 109.117C142.029 99.3152 143.866 99.0089 157.038 106.973Z" fill="black"/>
<path id="Vector_2" d="M122.119 111.261C120.281 119.225 122.425 125.351 127.326 125.351C131.002 125.351 131.002 107.892 127.02 105.441C125.488 104.522 123.344 106.973 122.119 111.261Z" fill="black"/>
</g>
</svg>
