<svg width="256" height="256" viewBox="0 0 256 256" fill="none" xmlns="http://www.w3.org/2000/svg">
<g id="Frame 21">
<path id="Vector" d="M75.8591 97.6206C72.5407 100.939 76.7641 104.861 83.0991 104.861C86.1157 104.861 91.2441 106.067 94.2607 107.576C109.947 116.324 119.299 119.341 118.092 116.022C115.981 109.386 79.7807 93.6989 75.8591 97.6206Z" fill="black"/>
<path id="Vector_2" d="M144.639 106.973C138.002 109.084 131.365 112.403 129.857 113.911C124.125 119.643 130.159 119.643 145.544 113.911C154.292 110.593 164.549 107.878 168.772 107.878C172.995 107.878 176.314 106.671 176.314 104.861C176.314 100.939 159.119 101.844 144.639 106.973Z" fill="black"/>
<path id="Vector_3" d="M71.0319 124.469C71.0319 130.201 71.3336 130.502 73.4452 124.469C75.5569 119.039 75.8586 119.341 77.6686 126.279C78.8752 130.502 82.7969 135.631 86.4169 137.441L93.3552 141.061L86.1152 140.156C82.1936 139.854 78.2719 141.061 77.6686 142.871C76.1602 147.094 109.947 148.301 115.98 144.077C119.299 141.664 117.187 141.362 108.439 142.569C98.1819 143.776 97.5785 143.776 104.819 141.362C132.873 132.011 124.728 120.246 90.0369 118.737C72.2386 118.134 70.7302 118.737 71.0319 124.469ZM95.7685 129.296C94.8635 132.614 95.4669 135.027 97.2769 135.027C98.7852 135.027 100.897 132.312 101.802 128.994C103.31 122.659 111.154 120.849 114.472 125.977C117.79 131.106 110.249 137.742 102.104 137.139C97.8802 136.837 93.3552 134.424 91.8469 132.011C89.4335 128.391 88.8302 128.391 88.8302 131.709C88.8302 135.027 87.9252 135.027 84.3052 132.011C77.3669 126.279 78.8752 123.262 88.5286 123.564C95.1652 123.866 96.6735 125.072 95.7685 129.296Z" fill="black"/>
<path id="Vector_4" d="M104.215 130.804C104.215 134.122 105.12 135.027 106.025 132.614C106.93 130.502 106.629 127.787 105.724 126.882C104.819 125.676 103.914 127.486 104.215 130.804Z" fill="black"/>
<path id="Vector_5" d="M136.192 125.374C132.874 128.994 132.27 132.011 134.382 135.932C136.494 139.552 136.192 141.061 133.477 141.061C130.762 141.061 131.064 142.267 134.08 145.586C137.7 148.904 142.527 149.206 156.102 147.396C165.755 146.189 175.107 143.172 177.219 141.061C180.235 138.044 179.632 137.742 174.805 139.552C171.487 141.061 163.644 142.267 157.309 142.871C151.275 143.474 144.94 144.379 143.432 145.586C141.924 146.491 139.812 145.887 138.605 144.077C137.7 142.267 139.812 141.061 143.734 140.759H150.672L144.035 138.044C140.114 136.536 137.097 133.217 137.097 130.502C137.097 124.469 140.114 124.771 144.94 131.106C148.56 135.932 148.56 135.932 147.052 129.597C145.544 123.866 146.449 122.961 155.197 122.961C164.247 122.961 164.85 123.564 163.644 132.011C162.739 136.837 162.739 141.061 163.04 141.061C163.644 141.061 167.565 139.552 171.789 137.441C187.475 130.502 178.425 119.944 156.705 119.944C145.544 119.944 139.51 121.452 136.192 125.374ZM175.409 129.899C173.599 135.631 168.47 135.329 168.47 129.296C168.47 125.977 169.979 124.167 172.694 125.072C174.805 125.977 176.012 128.089 175.409 129.899Z" fill="black"/>
<path id="Vector_6" d="M152.18 130.201C152.18 132.614 153.689 135.631 155.197 136.536C157.007 137.441 158.214 135.631 158.214 132.312C158.214 128.692 157.007 125.977 155.197 125.977C153.689 125.977 152.18 127.787 152.18 130.201Z" fill="black"/>
<path id="Vector_7" d="M182.95 132.011C182.95 136.234 183.554 137.742 184.459 135.631C185.062 133.821 185.062 130.201 184.459 128.089C183.554 126.279 182.95 127.788 182.95 132.011Z" fill="black"/>
</g>
</svg>
