<svg width="256" height="256" viewBox="0 0 256 256" fill="none" xmlns="http://www.w3.org/2000/svg">
<g id="head">
<g id="Group 54">
<path id="Vector" d="M147.763 96.5219C141.907 98.5714 137.223 102.377 136.637 105.598C135.466 110.868 136.051 110.868 143.371 105.013C153.326 97.1075 172.649 96.5219 180.554 103.549C183.482 106.184 185.824 106.769 185.824 105.013C185.824 100.035 173.527 92.7157 165.33 93.0085C161.231 93.0085 153.326 94.4724 147.763 96.5219Z" fill="black"/>
<path id="Vector_2" d="M70.4691 108.526C71.6402 111.746 78.0814 112.625 96.5265 112.039C109.702 112.039 120.242 110.575 119.363 109.404C118.485 107.94 108.823 107.355 97.6977 107.648C86.572 107.94 76.6175 107.355 75.4463 106.476C72.2258 102.963 68.7124 104.427 70.4691 108.526Z" fill="black"/>
<path id="Vector_3" d="M148.934 111.454C136.93 116.724 134.295 121.408 139.858 126.971C146.006 133.119 170.307 137.218 177.334 133.705C185.824 129.02 190.216 119.066 185.239 114.381C179.383 108.526 159.181 106.769 148.934 111.454ZM168.843 113.796C169.429 115.845 169.136 121.408 167.965 126.385C166.794 132.241 165.915 133.119 165.622 129.313C165.33 126.093 164.451 120.53 163.573 116.724C161.523 109.99 166.794 107.355 168.843 113.796ZM157.132 122.579C158.596 130.777 158.303 131.07 154.497 126.385C150.105 120.237 149.519 113.21 153.326 113.21C154.79 113.21 156.546 117.309 157.132 122.579ZM182.018 117.895C183.482 122.287 175.87 133.412 172.942 130.484C170.892 128.435 174.699 113.21 177.334 113.21C179.09 113.21 180.847 115.26 182.018 117.895ZM150.691 127.849C150.691 131.363 149.812 131.363 146.006 127.264C143.371 124.629 142.2 121.115 143.371 119.066C146.006 114.967 150.691 120.53 150.691 127.849Z" fill="black"/>
<path id="Vector_4" d="M84.2296 121.115C67.5412 124.336 83.9369 130.777 108.53 130.777C122.877 130.777 125.512 126.385 113.8 121.994C106.481 119.066 96.2336 118.773 84.2296 121.115Z" fill="black"/>
</g>
</g>
</svg>
