<svg width="256" height="256" viewBox="0 0 256 256" fill="none" xmlns="http://www.w3.org/2000/svg">
<g id="Frame 10">
<path id="Vector" d="M148.681 108.767C135.135 113.927 133.2 120.055 141.585 129.731C150.938 141.019 165.129 141.664 173.515 131.343C180.933 122.313 180.933 120.055 172.87 111.992C166.097 105.219 159.324 104.251 148.681 108.767ZM169.322 115.862L176.74 122.635L169.322 128.44C165.129 131.666 159.324 134.568 156.744 134.246C149.326 134.246 140.618 126.505 140.94 119.732C140.94 113.927 141.263 113.927 143.843 120.055C146.1 125.215 146.745 125.538 146.745 121.022C147.068 116.185 154.808 109.089 160.291 108.767C161.259 108.767 165.452 111.992 169.322 115.862Z" fill="black"/>
<path id="Vector_2" d="M153.841 118.12C148.681 121.345 151.906 128.118 158.679 128.118C161.259 128.118 163.194 125.215 163.194 121.668C163.194 114.572 160.936 113.605 153.841 118.12Z" fill="black"/>
<path id="Vector_3" d="M86.757 115.862C68.6959 124.57 77.4039 144.244 99.0127 144.244C108.043 144.244 112.236 142.632 114.816 138.116C125.137 118.765 108.043 105.542 86.757 115.862ZM105.141 118.443C105.141 120.055 107.076 121.345 109.011 120.7C111.268 120.378 113.526 123.28 114.171 127.151C115.461 135.536 104.173 142.632 96.1101 139.084C93.2074 137.794 89.3372 137.149 87.7246 137.471C83.2093 138.439 79.6616 131.021 81.9192 125.215C83.5318 121.345 84.4994 121.99 86.112 128.118L88.3696 136.181L88.6921 127.473C89.0146 122.958 90.9498 118.12 93.2074 117.475C99.9803 114.572 105.141 115.217 105.141 118.443Z" fill="black"/>
<path id="Vector_4" d="M94.4975 123.603C89.9822 128.118 92.2399 134.891 98.0452 133.923C100.948 133.278 103.528 130.698 103.528 128.44C103.528 123.28 97.7227 120.377 94.4975 123.603Z" fill="black"/>
<path id="Vector_5" d="M109.011 128.118C109.011 132.633 109.656 134.246 110.623 131.988C111.269 130.053 111.269 126.183 110.623 123.925C109.656 121.99 109.011 123.603 109.011 128.118Z" fill="black"/>
</g>
</svg>
