<svg width="256" height="256" viewBox="0 0 256 256" fill="none" xmlns="http://www.w3.org/2000/svg">
<g id="head">
<g id="Group 56">
<path id="Vector" d="M147.498 104.609C135.416 110.804 135.726 122.576 148.117 129.081C159.889 135.276 164.535 134.967 170.731 128.152C177.546 120.717 177.236 111.114 170.421 104.918C163.296 98.4131 158.34 98.4131 147.498 104.609ZM169.492 112.663C174.448 125.364 162.057 131.869 147.807 124.434C140.683 120.407 140.373 117 146.878 110.804C154.003 103.37 166.394 104.609 169.492 112.663Z" fill="black"/>
<path id="Vector_2" d="M154.932 114.212C156.171 120.717 165.155 121.956 165.155 115.141C165.155 112.663 162.677 110.185 159.579 109.565C155.242 108.636 154.003 109.875 154.932 114.212Z" fill="black"/>
<path id="Vector_3" d="M86.4719 114.831C79.6568 121.646 80.5862 130.63 89.5696 138.684C99.1727 147.358 120.237 137.755 120.237 124.434C120.237 109.875 97.6238 103.679 86.4719 114.831ZM114.661 119.168C117.759 124.434 110.015 134.967 101.961 136.206C88.3305 138.374 80.2764 121.956 91.7381 115.451C97.9336 111.733 111.254 113.902 114.661 119.168Z" fill="black"/>
<path id="Vector_4" d="M89.2595 123.195C89.2595 125.983 91.4279 127.532 94.5257 126.912C102.27 125.364 103.199 118.239 95.7648 118.239C92.0475 118.239 89.2595 120.097 89.2595 123.195Z" fill="black"/>
</g>
</g>
</svg>
