<svg width="256" height="256" viewBox="0 0 256 256" fill="none" xmlns="http://www.w3.org/2000/svg">
<g id="Frame 9">
<path id="Vector" d="M98.7396 112.067C91.6529 112.953 83.9757 114.724 81.9088 116.201C79.8418 117.972 71.2788 118.268 60.6488 117.087C47.9519 115.61 41.4558 116.201 38.2077 118.858C32.5974 123.583 32.5974 132.441 38.2077 134.803C40.5699 135.689 42.6369 135.099 42.6369 133.622C42.6369 131.851 41.4558 130.669 39.9794 130.669C38.503 130.669 37.9124 128.012 38.7983 124.469C40.2746 119.449 42.0463 118.563 49.7235 120.039C54.7432 120.925 64.4874 122.697 71.5741 123.583C81.0229 125.059 83.9757 126.831 83.9757 130.965C83.9757 133.917 86.6332 137.756 90.1766 139.528C99.9207 144.843 125.315 137.166 125.315 128.898C125.315 122.697 136.535 122.106 138.012 128.012C138.897 130.965 142.736 135.099 146.575 136.87C156.319 141.299 175.512 133.622 175.512 125.354C175.512 120.63 178.169 119.154 188.209 118.268C207.697 116.201 215.374 119.449 214.784 128.898C214.193 137.756 218.327 136.87 220.689 127.717C223.642 116.496 205.04 109.409 186.732 114.429C181.417 115.906 178.465 115.315 178.465 113.248C178.465 111.181 171.378 110 159.271 110C144.803 110 139.783 111.181 137.716 115.02C135.059 119.449 134.173 119.449 124.429 115.02C118.818 112.362 113.503 110.295 112.913 110.591C112.618 110.886 106.122 111.476 98.7396 112.067ZM171.083 115.906C174.626 121.811 169.606 124.469 161.929 121.221C155.138 117.972 154.842 117.382 159.862 115.61C167.539 112.362 169.016 112.657 171.083 115.906ZM98.7396 122.402L101.397 129.193V122.402C101.692 117.087 103.464 115.906 112.027 115.906C120.295 115.906 122.362 117.087 122.362 121.516C122.362 128.602 116.752 133.032 104.645 135.394C96.9679 137.166 94.0152 136.28 90.7671 132.146C85.1568 123.878 85.4521 115.906 91.6529 123.583C96.0821 128.898 96.0821 128.898 94.3104 122.402C93.1293 118.858 93.1293 115.906 94.3104 115.906C95.1963 115.906 97.2632 118.858 98.7396 122.402ZM148.937 117.087C148.937 117.972 147.756 119.449 145.984 120.335C144.508 121.221 143.031 120.63 143.031 119.154C143.031 117.382 144.508 115.906 145.984 115.906C147.756 115.906 148.937 116.496 148.937 117.087ZM157.795 128.898C157.795 130.965 158.976 130.669 160.453 128.012C161.929 125.65 163.701 125.354 164.882 127.126C167.244 130.965 159.862 133.622 152.185 131.555C145.984 130.079 144.508 127.421 147.756 123.878C150.413 121.221 157.795 124.764 157.795 128.898Z" fill="black"/>
<path id="Vector_2" d="M106.121 124.764C107.303 126.536 109.369 127.126 110.846 126.241C114.98 123.583 114.094 121.811 108.779 121.811C106.417 121.811 105.236 123.288 106.121 124.764Z" fill="black"/>
</g>
</svg>
