<svg width="256" height="256" viewBox="0 0 256 256" fill="none" xmlns="http://www.w3.org/2000/svg">
<path d="M96.8511 3.60848C96.8511 4.48292 98.6681 6.66903 100.745 8.41792C105.936 12.7901 105.677 15.4135 100.226 16.5065C96.5915 17.381 96.8511 17.5996 101.264 17.8182C104.379 17.8182 107.753 19.1299 108.791 20.4415C109.83 22.1904 108.532 22.409 104.638 21.316C100.226 20.2229 99.1872 20.4415 100.745 22.409C102.043 24.3765 101.783 24.8138 99.7064 23.7207C98.1489 22.8463 94.7745 18.6926 91.9192 14.3204C87.766 7.32487 87.2468 6.88765 85.6894 11.2599C84.9106 13.6646 85.4298 15.4135 86.4681 14.7576C87.766 14.1018 89.3234 14.539 90.1021 15.6321C92.1787 18.474 78.1617 20.2229 72.7106 17.5996C70.1149 16.5065 66.7404 16.0693 64.9234 16.7251C63.1064 17.1624 64.4043 18.474 67.7787 19.1299C70.8936 20.0043 73.4894 21.7532 73.4894 22.8463C73.4894 23.9393 74.5277 24.3765 75.8255 23.7207C77.1234 22.8463 81.017 23.2835 84.1319 24.3765C89.3234 25.9068 88.2851 26.344 77.383 27.6557C63.366 29.6232 47.7915 35.3071 42.6 40.7724C40.5234 42.7399 36.8894 44.2701 34.034 44.2701C31.4383 44.2701 29.6213 45.1446 30.4 46.2376C31.9574 48.2051 11.7106 63.9451 8.0766 63.9451C6.77872 63.9451 6 65.0382 6 66.3499C6 67.8801 8.85532 67.2243 13.0085 65.0382C17.9404 62.1963 20.2766 61.9776 21.0553 63.7265C21.5745 65.0382 23.1319 65.694 24.1702 65.0382C25.4681 64.3824 25.9872 62.4149 25.2085 60.8846C24.4298 58.9171 25.9872 57.1682 29.1021 56.2938C34.034 54.9821 35.8511 52.5774 34.8128 47.9865C34.5532 46.8935 35.5915 46.6749 37.1489 47.5493C38.7064 48.2051 38.966 49.954 38.1872 51.2657C37.1489 52.5774 37.9277 54.3263 39.7447 55.2007C42.0809 56.2938 42.0809 57.1682 40.0043 58.2613C38.4468 59.1357 37.1489 58.6985 37.1489 57.3868C37.1489 56.0751 35.8511 55.6379 34.5532 56.2938C32.4766 57.3868 32.7362 58.6985 34.8128 60.8846C36.3702 62.6335 36.8894 65.4754 35.8511 67.6615C34.5532 69.8476 34.034 72.2524 34.034 73.1268C34.2936 74.2199 29.6213 77.7176 23.6511 81.434C17.9404 84.9318 13.7872 87.9924 14.566 87.9924C18.2 87.9924 29.3617 82.7457 29.3617 81.2154C29.3617 80.341 31.9574 79.6851 35.3319 79.9038C38.4468 80.1224 41.5617 79.2479 42.0809 78.1549C42.6 76.8432 44.6766 74.0013 46.4936 71.5965C51.6851 65.4754 51.4255 60.2288 46.234 63.9451C44.1574 65.4754 42.8596 67.2243 43.3787 68.0988C45.1957 70.5035 40.2638 75.9688 37.9277 74.0013C36.8894 72.9082 37.1489 71.5965 38.966 71.1593C40.783 70.7221 41.3021 68.7546 40.5234 67.0057C39.7447 65.2568 40.5234 62.4149 42.3404 60.666C44.1574 58.6985 44.9362 56.731 43.8979 55.8565C43.1191 54.9821 44.9362 52.1401 48.0511 49.2982C51.166 46.4563 52.2043 44.2701 50.6468 44.2701C44.9362 44.2701 47.5319 40.1165 55.3191 36.6188C59.4723 34.8699 70.1149 31.8093 79.2 30.0604C93.7362 27.2185 95.8128 27.2185 99.966 30.4976C105.936 34.8699 104.119 36.6188 97.1106 33.3396C93.9957 32.0279 91.6596 31.5907 91.6596 32.0279C91.6596 32.6838 95.034 34.6513 99.1872 36.6188C107.494 40.1165 113.204 37.4932 107.494 32.6838C103.34 29.186 103.86 26.7813 109.311 26.7813C112.685 26.7813 112.945 27.2185 110.349 28.7488C107.494 30.0604 107.494 30.9349 110.349 32.6838C117.098 37.056 120.991 38.5863 119.174 35.9629C118.136 34.4326 118.915 33.3396 120.732 33.3396C122.809 33.121 122.289 32.0279 119.174 30.0604C114.243 26.9999 114.243 26.7813 120.472 26.7813C125.145 26.7813 126.962 28.0929 127.221 31.1535C127.481 33.5582 126.702 35.5257 125.145 35.5257C123.847 35.5257 122.809 37.056 122.809 38.8049C122.809 43.6143 127.221 42.7399 128.779 37.4932C129.817 34.6513 131.374 33.5582 133.191 34.4326C135.528 35.5257 135.787 34.6513 134.489 31.1535C132.672 26.5626 133.191 26.5626 145.391 27.4371C156.294 28.5301 165.379 29.8418 169.532 31.1535C170.311 31.3721 171.868 31.5907 172.906 31.3721C176.281 30.9349 191.077 38.3676 197.566 43.8329C200.681 46.6749 203.277 51.2657 203.277 53.889C203.277 57.6054 205.613 59.7915 211.064 61.759C215.477 63.2893 218.851 65.4754 218.851 66.7871C218.851 68.3174 217.813 68.3174 215.736 66.5685C210.545 62.1963 208.468 63.5079 208.468 71.5965C208.468 75.7501 209.506 79.2479 210.545 79.2479C213.4 79.2479 212.881 96.9554 210.285 100.672C208.728 102.421 209.506 105.044 211.843 107.23C219.63 114.882 222.226 121.221 218.591 123.407C215.736 125.156 215.736 125.375 218.851 124.5C220.928 124.063 223.004 121.877 223.004 119.472C223.264 117.286 223.783 114.226 224.043 113.133C224.302 111.821 224.562 110.072 224.302 109.198C224.043 108.105 226.638 109.198 230.272 111.384C233.647 113.57 235.983 115.756 235.464 116.193C234.945 116.63 232.868 115.756 230.791 114.444C228.715 112.914 226.379 112.695 225.6 113.788C224.821 114.882 227.157 116.849 230.791 118.379C239.617 121.658 240.136 121.44 239.098 115.756C238.579 113.133 236.762 111.165 234.945 111.384C233.387 111.821 228.455 106.793 224.043 100.453C215.996 88.6482 214.438 84.4946 218.851 86.8993C222.485 88.8668 222.226 85.1504 218.332 81.8712C215.996 79.9038 215.996 79.2479 218.332 79.2479C220.149 79.2479 221.447 80.1224 221.447 80.9968C221.447 82.0899 225.081 84.9318 229.234 87.5551C235.204 91.2715 237.021 91.7087 237.021 89.304C237.021 87.5551 234.685 85.5876 232.089 84.7132C229.234 84.0574 225.34 81.2154 223.264 78.3735C219.37 73.3454 219.37 73.3454 228.715 74.2199C239.357 75.0943 243.511 77.0618 234.945 77.0618C227.417 77.0618 225.6 80.7782 232.609 82.3085C240.915 84.0574 244.03 83.8387 239.877 81.6526C236.762 79.9038 237.281 79.0293 242.991 76.8432C246.885 75.3129 250 73.1268 250 72.0338C250 70.9407 248.183 71.1593 246.106 72.6896C241.434 75.9688 237.54 74.0013 234.426 67.0057C233.128 64.1638 231.051 61.759 230.013 61.9776C225.081 62.6335 221.447 61.5404 221.447 59.5729C221.447 58.4799 223.523 58.0426 226.119 58.6985C229.753 59.7915 230.013 59.5729 226.638 57.6054C224.562 56.2938 220.668 55.8565 218.072 56.5124C215.477 57.1682 213.919 56.9496 214.179 55.8565C216.774 49.5168 179.915 26.7813 166.936 26.7813C163.821 26.7813 162.004 25.9068 162.783 25.0324C163.302 24.1579 157.072 23.2835 148.766 23.2835C140.2 23.2835 132.672 22.6276 131.894 21.9718C129.557 20.0043 135.268 11.4785 138.902 11.4785C141.238 11.4785 141.238 12.1343 138.902 14.1018C133.711 18.474 135.528 21.0974 140.719 17.1624C143.834 14.7576 147.209 13.8832 149.285 14.9763C152.14 16.2879 152.14 16.0693 149.285 13.2274C146.689 10.3854 146.689 9.51098 149.285 8.41792C151.102 7.76209 147.987 7.76209 142.277 8.19931L131.894 9.29237L139.681 6.0132C146.689 2.95265 146.949 2.73403 141.238 3.17126C135.009 3.82709 132.413 6.23181 129.298 14.539C128 18.474 127.221 18.2554 120.213 12.5715C109.83 4.26431 108.013 6.45042 117.617 15.1949C126.962 23.7207 127.221 24.5951 118.915 24.5951C114.762 24.5951 112.426 23.2835 112.426 21.316C112.426 19.5671 111.387 18.0368 109.83 18.0368C108.532 18.0368 108.013 16.7251 108.791 15.1949C109.311 13.6646 106.974 9.9482 103.34 7.10626C99.7064 4.26431 96.8511 2.73403 96.8511 3.60848ZM47.5319 46.4563C47.5319 47.5493 46.234 48.6424 44.6766 48.6424C43.3787 48.6424 42.8596 47.5493 43.6383 46.4563C44.417 45.1446 45.7149 44.2701 46.4936 44.2701C47.0128 44.2701 47.5319 45.1446 47.5319 46.4563ZM230.791 69.4104C233.387 71.1593 234.426 72.6896 232.868 72.6896C231.57 72.6896 227.936 71.1593 225.081 69.4104C222.485 67.6615 221.447 66.1313 223.004 66.1313C224.302 66.1313 227.936 67.6615 230.791 69.4104ZM216.255 75.0943C216.255 76.406 215.217 76.6246 213.66 75.9688C212.362 75.3129 211.064 73.564 211.064 72.471C211.064 71.1593 212.362 70.9407 213.66 71.5965C215.217 72.2524 216.255 74.0013 216.255 75.0943ZM217.553 99.1415C216.515 100.235 217.034 101.109 218.332 101.109C219.63 101.109 220.668 102.639 220.668 104.388C220.668 107.667 216.515 109.198 215.996 105.918C214.438 98.7043 214.698 94.7693 216.774 95.8624C217.813 96.5182 218.332 98.0485 217.553 99.1415Z" fill="black"/>
<path d="M28.1081 61.8997C31.9019 63.7993 29.6256 65.9101 16.4738 71.398C11.6683 73.5088 8.63329 75.6195 9.39205 76.4638C10.4037 77.097 12.4271 76.4638 13.9446 75.1974C18.2442 71.6091 22.2909 72.0312 18.4971 75.8306C16.7267 77.5192 13.6917 78.9967 11.9212 78.9967C9.89789 78.9967 8.38037 79.841 8.38037 81.1074C8.38037 84.0625 9.89789 83.8514 19.7617 78.3635C24.5672 75.8306 28.6139 72.6645 28.6139 71.1869C28.6139 69.9205 29.8785 68.443 31.6489 68.0208C35.4427 66.9655 32.4077 60 28.1081 60C25.5789 60 25.5789 60.4221 28.1081 61.8997Z" fill="black"/>
<path d="M27.1965 85.7496C25.1143 87.4906 23.5526 90.1022 23.5526 91.4079C23.5526 92.7137 21.7307 94.89 19.6485 96.4134C17.5663 97.9368 15.7444 100.331 15.7444 101.637C16.0046 102.942 18.3471 101.637 20.9499 98.8073C23.8129 95.9782 26.1554 94.89 26.1554 96.1958C26.1554 97.7192 27.4568 98.1544 29.539 97.2839C31.1006 96.4134 28.2376 99.025 23.0321 103.378C17.5663 107.512 13.1416 111.647 13.1416 112.736C13.1416 113.824 16.7855 111.865 20.9499 108.383C29.2787 101.637 31.3609 103.16 24.5937 111.212C22.5115 113.824 21.7307 116 23.2924 116C26.4157 116 39.1692 103.378 39.1692 100.113C39.1692 98.8073 37.3472 99.6778 35.265 102.072C33.1828 104.248 31.3609 105.119 31.3609 103.595C31.3609 102.289 33.4431 99.6778 36.0459 98.1544C38.6486 96.631 42.0322 92.2785 43.5939 88.5788C46.4569 82.0499 46.1966 81.8323 38.6486 82.0499C34.4842 82.2675 29.2787 83.7909 27.1965 85.7496ZM36.8267 88.7964C38.1281 87.9259 38.3883 89.2317 37.3472 91.1903C36.3061 93.8019 35.265 94.2371 34.4842 92.4961C33.7034 90.3198 32.6623 90.3198 29.7992 92.2785C25.3746 95.3253 24.854 91.8432 29.2787 88.1435C31.3609 86.4025 32.9225 86.1849 33.4431 87.7083C33.9637 88.7964 35.5253 89.4493 36.8267 88.7964Z" fill="black"/>
<path d="M222.624 89.6896C222.624 94.1079 229.623 99.8517 238.371 102.503C243.37 104.049 247.62 104.491 247.62 103.386C247.62 102.282 244.12 100.735 239.621 99.8517C232.872 98.7472 232.372 98.3053 236.372 96.7589C241.121 95.2125 241.121 94.9916 236.622 94.9916C233.872 94.7707 229.623 93.2243 227.124 91.0151C224.624 89.0268 222.624 88.3641 222.624 89.6896Z" fill="black"/>
</svg>
