<svg width="256" height="256" viewBox="0 0 256 256" fill="none" xmlns="http://www.w3.org/2000/svg">
<path d="M111.48 7.18457C111.48 8.64095 108.082 13.2528 103.956 17.622C96.9166 25.1466 96.4311 24.4184 101.043 12.7674C102.499 9.36914 102.014 9.12641 98.8584 11.5537C96.9166 13.2528 94.4893 13.981 93.7611 13.0101C92.7902 12.2819 92.062 12.5246 91.8192 13.7383C91.8192 14.9519 91.3338 18.3502 91.091 21.2629C90.6056 24.9039 91.5765 25.8748 94.0038 24.9039C96.6738 23.9329 97.402 24.6611 96.1884 27.5739C94.2465 32.914 96.6738 32.914 101.043 27.3312C104.198 23.4475 104.198 23.6902 102.742 29.0303C101.771 32.914 102.014 34.1276 103.956 33.1567C105.412 32.1858 106.626 32.4285 106.626 33.8849C106.626 38.254 102.499 38.9822 97.8875 35.3413C91.8192 30.7294 89.6347 30.7294 89.6347 35.3413C89.6347 39.7104 84.7801 49.1769 81.1391 51.6042C79.44 52.8178 79.44 53.546 81.1391 53.546C82.5955 53.546 81.8673 54.7597 79.9255 55.9733C76.77 57.9151 77.0127 58.8861 81.6246 63.4979C86.4792 68.5953 86.7219 69.3235 83.3237 75.8772C79.6827 82.9163 76.5272 84.3727 73.8572 80.2463C71.4299 76.1199 77.2554 68.1098 81.3818 69.8089C84.7801 71.0226 84.5373 70.2944 80.8964 66.168C76.5272 61.0706 70.9445 58.6433 73.6145 63.0125C74.5854 64.2261 73.3718 68.3525 71.4299 72.2362C69.2453 75.8772 66.5753 82.1882 65.1189 86.3146C63.6626 90.1982 61.9634 92.3828 61.2353 90.6837C60.2643 88.0137 64.148 77.0908 71.4299 62.7697C73.129 59.3715 74.0999 55.7306 73.129 55.0024C70.459 52.0896 66.3326 53.7887 66.0899 57.6724C65.3617 68.3525 64.148 72.9644 62.2062 72.9644C61.2353 72.9644 60.7498 73.9353 61.7207 75.149C64.148 79.2754 58.5652 80.2463 54.6815 76.3626C51.0406 72.7217 50.0697 72.7217 44.7296 76.3626C37.4477 81.2172 36.9622 81.2172 36.9622 76.6054C36.9622 74.4208 38.4186 73.2071 40.1177 73.9353C41.5741 74.4208 45.2151 73.4499 47.8851 71.508C51.0406 69.3235 53.4679 68.838 54.4388 70.5371C57.3516 75.3917 60.2643 72.7217 61.9634 63.9834C63.9053 53.7887 77.0127 26.8457 80.1682 26.8457C81.1391 26.8457 82.8382 27.8166 83.5664 29.273C85.5083 32.4285 89.6347 32.4285 89.6347 29.5157C89.6347 28.3021 87.9356 25.6321 85.9937 23.6902C84.0519 21.7484 83.3237 19.5638 84.0519 18.5929C85.0228 17.8647 83.5664 17.1365 81.3818 17.1365C78.4691 17.1365 77.4982 18.3502 78.4691 21.0202C79.1973 22.962 78.9545 24.1757 77.9836 23.4475C76.77 22.7193 72.4008 29.273 68.2744 38.0113C61.478 51.8469 60.0216 53.3033 55.8952 51.1187C51.7688 48.9341 50.5551 50.1478 46.9142 59.6143C42.7878 70.5371 39.3895 73.6926 39.3895 66.8962C39.3895 64.9543 40.3605 63.2552 41.5741 63.2552C42.545 63.2552 43.516 61.5561 43.516 59.6143C43.516 57.6724 42.3023 55.9733 41.0887 55.9733C39.6323 55.9733 40.1177 52.5751 42.3023 48.4487C44.4869 44.3223 46.9142 41.6522 47.8851 42.3804C48.6133 43.3513 47.8851 45.2932 46.4287 46.7496C44.7296 48.4487 43.516 51.3614 43.516 53.3033C43.516 55.9733 44.7296 55.4878 47.3996 51.6042C49.3415 48.6914 52.0115 46.7496 53.2252 47.4778C54.1961 48.2059 55.8952 46.9923 56.6234 44.8077C58.808 38.9822 58.3225 38.0113 54.4388 41.4095C52.0115 43.5941 50.7979 43.5941 50.7979 41.6522C50.7979 40.1959 50.7979 38.4967 50.7979 37.7686C50.7979 37.0404 51.526 36.5549 52.7397 36.3122C53.7106 36.3122 55.6525 35.0985 57.3516 33.8849C60.9925 30.7294 62.9344 36.5549 60.0216 42.1377C58.808 44.565 58.3225 47.235 58.808 47.7205C59.5361 48.4487 61.9634 43.8368 64.3907 37.2831C66.5753 30.9721 69.4881 24.6611 70.7017 23.2048C73.8572 19.5638 72.8863 16.4083 69.4881 19.3211C67.5462 20.7775 65.6044 21.5056 64.8762 20.7775C64.148 20.0493 62.2062 21.2629 60.2643 23.6902C57.3516 27.3312 57.3516 27.5739 61.2353 26.1175C63.9053 25.1466 65.1189 25.3893 64.148 27.0884C63.1771 28.3021 60.7498 28.7875 58.5652 28.3021C52.7397 26.3602 32.8358 44.0795 26.7676 56.7015C19.0002 72.4789 23.6121 92.6255 37.205 102.82C46.186 109.617 51.526 111.801 62.6916 113.258C69.2453 113.986 70.459 113.743 68.0317 111.073C66.5753 109.131 65.8471 107.189 66.5753 106.704C67.0608 105.976 63.1771 105.733 57.5943 105.976C47.3996 106.461 38.6614 103.063 38.6614 98.6938C38.6614 97.4801 40.6032 98.2083 43.0305 100.393C47.8851 104.762 52.0115 105.976 49.5842 102.335C48.856 100.878 50.3124 100.15 52.9824 100.393C55.6525 100.393 57.3516 101.364 56.8661 102.092C56.3807 102.82 59.7789 103.063 64.3907 102.577C69.0026 102.092 73.129 100.636 73.8572 99.422C74.5854 98.4511 71.4299 98.2083 66.818 98.9365C59.2934 100.15 57.837 99.422 53.2252 92.1401L48.1278 83.8873L49.3415 90.6837C50.3124 96.2665 49.8269 97.4801 46.9142 96.2665C44.7296 95.5383 42.3023 94.8101 41.0887 94.8101C40.1177 94.8101 38.4186 92.3828 37.6904 89.2273C35.9913 84.13 35.9913 84.13 34.0495 88.7419C32.1076 93.111 31.8649 93.111 30.1658 87.0428C29.1949 83.4018 28.9522 79.0327 29.6803 77.3335C30.4085 75.6344 31.1367 76.6054 31.1367 79.5181C31.3795 83.4018 32.3504 84.6155 35.2631 83.4018C37.6904 82.4309 39.3895 83.6445 40.3605 87.2855C41.0887 89.9555 43.2732 92.3828 45.2151 92.3828C47.1569 92.3828 48.1278 91.4119 47.3996 90.1982C44.9723 86.3146 48.6133 80.7318 52.7397 81.46C54.9243 81.9454 57.837 82.4309 58.808 82.4309C60.0216 82.6736 60.0216 83.8873 59.2934 85.1009C58.3225 86.5573 56.6234 87.0428 55.4097 86.3146C52.0115 84.13 52.7397 86.8 57.1088 90.9264C62.4489 96.2665 65.1189 95.781 68.2744 88.7419C70.459 84.13 71.6726 83.4018 75.3136 85.1009C81.1391 88.2564 82.3528 88.2564 82.3528 84.13C82.3528 82.4309 84.0519 79.5181 85.9937 77.819C88.9065 75.3917 90.3629 75.3917 93.2756 77.819C95.4602 79.5181 96.9166 79.7609 96.9166 78.3045C96.9166 77.0908 95.2175 75.149 93.0329 74.4208C90.8483 73.4499 89.6347 72.2362 90.3629 71.508C91.091 70.7798 94.0038 71.508 96.9166 72.9644C100.558 74.9062 101.528 77.0908 100.315 80.9745C99.1011 85.8291 99.1011 85.8291 102.499 82.6736C107.354 78.0617 110.509 65.6825 106.869 65.6825C105.412 65.6825 104.927 63.7407 105.655 61.3134C106.869 57.9151 106.626 57.6724 104.441 60.8279C102.257 63.9834 101.771 63.9834 101.771 60.8279C101.771 58.8861 102.742 55.7306 103.956 54.0315C105.412 51.3614 106.383 51.6042 107.839 55.2451C109.053 57.6724 109.539 61.0706 109.296 62.7697C109.053 64.4689 110.267 65.4398 111.966 65.197C114.15 64.7116 114.879 67.6243 114.636 75.3917C113.908 86.3146 115.364 85.3436 119.976 71.7508C121.432 67.6243 122.646 68.5953 127.743 78.5472C130.899 85.1009 134.297 89.7128 135.025 88.9846C135.753 88.2564 134.054 83.8873 131.384 79.0327C128.471 74.4208 126.772 68.838 127.743 66.8962C128.471 64.7116 128.229 63.2552 127.015 63.7407C125.801 64.2261 124.831 63.2552 124.831 62.0416C124.831 60.5852 125.559 59.857 126.772 60.0997C128.957 61.0706 128.957 57.4297 126.772 55.2451C126.044 54.2742 123.86 54.7597 121.918 56.216C119.733 58.4006 118.762 58.1579 118.762 56.216C118.762 54.7597 119.976 53.546 121.432 53.546C122.646 53.546 123.131 52.3324 122.403 51.1187C121.432 49.6623 119.733 49.1769 118.52 49.9051C117.306 50.876 116.335 49.6623 116.335 47.7205C116.335 42.6232 117.063 42.8659 125.316 50.6332C132.598 57.187 140.608 70.2944 140.608 75.3917C140.608 80.7318 135.996 75.149 134.54 68.1098C133.569 63.9834 131.87 60.8279 130.656 60.8279C129.2 60.8279 129.2 62.527 130.656 65.4398C132.112 67.8671 132.598 70.5371 131.87 71.0226C131.384 71.7508 133.569 77.0908 136.967 82.9163C140.608 88.9846 142.55 90.9264 141.579 87.5282C140.123 81.9454 140.123 81.7027 144.249 85.1009C148.133 88.2564 148.618 88.2564 147.404 85.1009C146.676 83.1591 144.249 81.7027 142.064 81.7027C138.909 82.1882 138.666 81.46 140.851 78.7899C142.307 76.8481 143.035 73.6926 142.064 71.7508C141.336 69.5662 142.064 68.1098 144.006 68.1098C146.191 68.1098 146.919 70.0516 146.191 73.4499C145.22 78.0617 145.463 78.3045 147.647 75.3917C149.104 73.4499 150.317 69.5662 150.56 66.8962C150.803 62.2843 151.045 62.2843 152.016 66.6534C152.744 69.3235 154.686 72.7217 156.385 74.6635C159.055 77.3335 160.026 76.6054 161.968 71.0226L164.153 64.4689L167.308 71.0226C171.192 79.0327 175.561 77.3335 173.619 68.3525C172.163 62.7697 172.406 62.527 175.318 66.168C177.26 68.5953 179.93 70.5371 181.387 70.5371C182.843 70.5371 184.785 72.7217 185.513 75.6344C186.484 78.5472 188.426 80.0036 190.61 79.2754C192.552 78.5472 194.009 79.5181 194.009 81.7027C194.009 84.13 195.465 85.1009 197.65 84.13C199.834 83.4018 201.29 84.13 201.29 86.5573C201.29 88.7419 199.591 89.9555 197.164 89.4701C194.494 88.9846 192.795 90.441 192.795 93.111C192.795 95.5383 191.096 98.4511 189.154 99.6647C187.212 100.878 186.727 102.092 188.183 102.092C189.397 102.092 191.824 100.878 193.523 99.1793C195.708 96.9947 196.436 96.9947 196.436 99.1793C196.436 100.878 198.378 102.092 200.562 102.092C204.203 102.092 203.961 101.607 199.834 98.2083C197.407 96.2665 196.679 95.2956 198.62 96.2665C201.048 97.4801 201.533 96.9947 200.077 94.8101C198.863 92.8683 199.349 92.1401 201.533 92.8683C205.174 94.0819 206.388 105.248 202.99 109.859C201.29 112.287 201.048 112.044 202.019 108.888C203.475 104.762 196.193 101.364 190.125 103.791C185.27 105.733 188.911 109.859 194.009 108.16C197.65 106.947 198.135 107.675 197.164 111.801C195.222 118.598 200.077 117.869 206.145 110.102C209.543 105.49 210.757 101.607 209.786 97.2374C208.815 93.111 209.058 92.3828 210.514 94.5674C213.427 98.6938 216.097 94.5674 218.282 82.6736C219.253 77.5763 220.952 74.4208 222.893 74.9062C225.078 75.3917 225.563 74.1781 224.35 71.2653C223.379 68.838 221.68 63.0125 220.466 58.4006C218.767 50.6332 200.077 29.5157 197.407 32.1858C196.921 32.914 201.533 38.0113 207.601 43.5941C213.912 49.1769 218.282 54.2742 217.553 55.0024C216.825 55.7306 207.844 48.2059 197.407 38.0113C186.969 28.0594 177.746 20.7775 177.017 21.9911C176.047 23.4475 173.377 22.4766 170.707 19.8065C163.667 13.4955 157.356 10.3401 145.22 7.67003C133.569 5 118.762 6.69911 124.102 10.0973C126.53 11.7964 126.287 12.2819 122.889 12.2819C120.461 12.2819 119.248 13.2528 119.976 14.7092C120.704 15.9229 119.733 20.5347 117.549 24.6611C114.636 30.0012 114.15 32.914 116.092 34.8558C119.976 38.7395 119.49 41.4095 114.879 41.4095C112.451 41.4095 111.48 40.1959 112.451 37.5258C113.422 35.0985 112.937 34.3703 110.995 35.584C109.053 36.7976 108.81 36.0694 109.781 33.1567C110.752 30.7294 111.48 27.3312 111.48 25.3893C111.48 23.2048 112.694 22.4766 114.15 23.4475C116.092 24.6611 116.335 23.9329 114.393 20.5347C112.937 17.8647 112.694 13.981 114.15 10.5828C115.364 7.18457 115.364 5 113.908 5C112.451 5 111.48 5.97092 111.48 7.18457ZM152.987 15.1947C154.686 18.3502 155.9 21.0202 155.657 21.2629C155.415 21.7484 155.657 21.9911 156.385 21.9911C157.114 21.9911 158.813 21.9911 160.512 21.9911C161.968 21.9911 161.24 19.5638 158.57 16.8938C153.958 11.5537 153.958 11.5537 158.813 14.2237C166.58 18.3502 186.969 38.9822 185.513 41.4095C184.785 42.6232 185.27 44.0795 186.727 45.0505C187.94 45.7786 189.154 47.7205 189.154 49.1769C189.154 50.6332 186.727 49.9051 183.814 47.235L178.231 42.6232L182.843 47.9632C185.27 50.876 188.426 53.0605 189.639 52.8178C191.096 52.5751 192.552 53.546 193.28 55.2451C195.465 61.0706 185.513 56.4588 178.959 48.4487C172.891 41.4095 172.648 39.9531 175.804 37.5258C178.959 35.0985 178.717 34.3703 174.105 30.2439C169.25 25.8748 169.007 25.8748 170.464 30.0012C171.92 34.1276 171.435 33.8849 165.124 29.5157C161.483 26.8457 157.599 25.1466 156.628 26.1175C155.9 26.8457 157.356 29.273 160.026 30.9721C165.124 34.6131 174.59 50.3905 169.978 47.7205C165.124 44.565 167.308 49.1769 174.59 57.6724C182.358 66.4107 183.571 66.4107 179.202 57.6724C176.532 52.5751 176.775 52.5751 180.658 56.4588C183.328 58.8861 184.299 62.0416 183.328 64.7116C181.872 68.5953 181.387 68.5953 177.26 64.7116C172.163 60.0997 169.007 62.7697 170.949 69.8089C171.677 72.2362 170.464 70.2944 168.036 65.6825C165.609 61.0706 162.939 56.7015 161.968 56.4588C160.755 55.9733 160.026 53.7887 160.026 51.6042C160.026 48.4487 160.755 48.6914 163.667 52.5751C166.823 56.9442 167.066 56.7015 166.095 49.4196C165.124 40.1959 160.755 31.7003 157.114 31.7003C155.657 31.7003 156.385 34.1276 159.055 36.7976C162.454 40.6813 162.696 42.3804 160.755 43.1086C156.871 44.565 156.628 52.0896 160.026 58.4006C161.483 61.0706 161.483 65.197 160.512 68.3525C158.57 73.2071 158.085 72.7217 153.715 62.527C151.288 56.4588 148.133 52.0896 146.919 52.8178C145.705 53.546 145.22 52.8178 145.948 51.1187C147.647 46.0214 152.744 45.2932 152.744 50.1478C152.744 52.3324 153.23 53.7887 153.958 53.0605C154.686 52.5751 154.444 46.9923 153.715 40.924C152.502 32.1858 150.803 29.273 145.948 26.8457C140.851 24.6611 140.365 23.6902 143.278 21.7484C146.919 19.5638 146.919 19.5638 138.909 18.5929C132.355 17.8647 132.355 17.8647 136.967 26.8457C140.608 33.8849 139.637 41.4095 135.268 41.4095C134.054 41.4095 133.812 40.1959 134.54 38.9822C135.511 37.5258 134.782 34.8558 133.326 32.6712C131.384 30.7294 130.899 25.8748 131.627 20.7775C132.355 15.6801 132.112 12.7674 130.656 13.4955C129.442 14.4665 128.471 16.651 128.471 18.5929C128.471 20.5347 127.501 21.9911 126.044 21.9911C122.889 21.9911 122.889 20.5347 126.53 14.7092C131.142 7.4273 149.104 7.91276 152.987 15.1947ZM109.539 26.1175C108.325 32.6712 108.325 32.6712 106.14 27.0884C104.198 21.2629 105.655 16.1656 108.81 18.3502C110.024 18.8356 110.267 22.4766 109.539 26.1175ZM124.831 26.8457C125.559 28.0594 125.073 29.273 123.86 29.273C122.403 29.273 121.19 28.0594 121.19 26.8457C121.19 25.3893 121.675 24.4184 122.16 24.4184C122.889 24.4184 124.102 25.3893 124.831 26.8457ZM150.317 34.6131C150.317 35.8267 149.346 36.0694 147.89 35.3413C146.676 34.6131 144.977 37.0404 144.006 40.6813C141.093 54.7597 138.181 60.0997 139.637 48.6914C140.608 42.6232 141.336 36.0694 141.336 33.8849C141.579 29.7585 150.317 30.4867 150.317 34.6131ZM128.471 36.3122C128.471 38.9822 127.501 41.6522 126.287 42.3804C123.617 44.0795 121.432 38.9822 123.131 34.6131C124.831 30.0012 128.471 31.2148 128.471 36.3122ZM199.106 45.0505C201.533 47.7205 202.261 50.6332 201.048 51.3614C199.834 52.0896 201.048 54.7597 203.961 57.4297C208.815 61.5561 209.301 61.5561 207.844 57.6724C205.902 52.3324 206.873 52.3324 212.213 58.4006C216.34 62.7697 216.34 63.2552 212.699 61.7988C209.786 60.8279 208.572 61.5561 208.572 64.2261C208.572 66.4107 207.359 68.1098 205.902 68.1098C204.689 68.1098 203.961 67.1389 204.689 65.9252C205.417 64.9543 203.961 61.3134 201.29 58.4006C198.62 55.4878 197.164 52.0896 197.65 51.1187C198.378 50.1478 197.164 47.9632 194.98 46.0214C193.038 44.3223 190.125 40.6813 188.669 38.0113C185.998 33.1567 186.241 33.1567 190.61 36.5549C193.038 38.4967 196.921 42.3804 199.106 45.0505ZM101.528 42.8659C105.169 38.7395 110.267 37.5258 107.839 41.4095C107.111 42.6232 107.597 43.8368 108.81 43.8368C111.723 43.8368 119.49 60.8279 117.549 63.0125C116.82 63.7407 115.607 61.7988 114.636 58.8861C113.908 55.9733 112.451 54.0315 111.48 54.7597C110.267 55.4878 108.568 53.7887 107.839 51.1187C106.626 47.235 105.412 46.7496 103.228 48.4487C99.1011 52.0896 90.6056 45.7786 93.2756 41.4095C94.9747 38.7395 95.7029 38.9822 96.9166 42.3804C98.1302 46.2641 98.6157 46.2641 101.528 42.8659ZM36.4768 49.4196C33.3213 52.3324 31.6222 53.0605 32.5931 51.1187C35.9913 44.8077 39.3895 41.1668 40.6032 42.6232C41.3314 43.3513 39.3895 46.5068 36.4768 49.4196ZM131.87 47.7205C132.598 49.6623 132.355 50.6332 130.899 49.9051C129.442 49.1769 128.471 47.4778 128.471 46.0214C128.471 42.6232 130.171 43.3513 131.87 47.7205ZM92.7902 54.7597C92.062 56.7015 90.6056 58.4006 89.3919 58.4006C86.9646 58.4006 86.4792 52.5751 88.6637 50.3905C91.3338 47.7205 94.4893 51.1187 92.7902 54.7597ZM57.5943 58.4006C60.7498 63.4979 59.5361 69.3235 55.6525 66.8962C54.4388 66.168 54.1961 63.7407 54.9243 61.3134C56.3807 57.6724 55.8952 57.6724 52.7397 60.3424C49.3415 63.0125 48.856 62.7697 50.0697 58.6433C51.7688 52.3324 53.7106 52.3324 57.5943 58.4006ZM36.2341 56.9442C36.2341 57.6724 35.2631 58.8861 33.8068 59.6143C32.5931 60.3424 31.3795 59.857 31.3795 58.6433C31.3795 57.187 32.5931 55.9733 33.8068 55.9733C35.2631 55.9733 36.2341 56.4588 36.2341 56.9442ZM148.618 63.9834C147.89 65.197 146.191 64.9543 144.977 63.7407C143.521 62.2843 143.278 59.857 144.249 58.4006C145.705 56.216 146.433 56.216 148.133 58.6433C149.104 60.3424 149.346 62.7697 148.618 63.9834ZM89.1492 63.0125C89.8774 64.9543 88.9065 65.9252 86.9646 65.197C85.2655 64.7116 83.3237 62.7697 82.8382 61.0706C82.11 59.1288 83.081 58.1579 85.0228 58.8861C86.7219 59.3715 88.6637 61.3134 89.1492 63.0125ZM98.373 60.5852C97.6448 61.7988 98.6157 63.2552 100.558 64.2261C102.499 64.9543 104.198 67.8671 104.198 71.0226C104.198 75.6344 103.713 75.8772 100.8 72.9644C96.1884 67.8671 93.5183 58.4006 96.9166 58.4006C98.373 58.4006 99.1011 59.3715 98.373 60.5852ZM194.009 63.2552C191.096 64.9543 191.096 65.6825 193.766 65.6825C195.465 65.6825 196.436 67.1389 195.465 69.3235C193.766 73.6926 197.892 74.1781 199.834 69.8089C200.562 68.3525 200.562 69.5662 199.834 72.4789C198.62 77.5763 199.106 78.0617 203.232 76.8481C205.902 75.8772 208.815 76.3626 209.786 77.5763C210.757 79.2754 209.543 79.5181 206.873 78.5472C202.99 77.0908 202.99 77.3335 205.902 81.2172C208.572 84.3727 208.572 86.0718 206.631 88.0137C204.446 90.1982 203.718 89.4701 203.718 85.3436C203.718 81.46 202.747 80.2463 200.32 80.9745C198.135 81.9454 195.95 80.489 194.98 77.3335C194.009 73.6926 193.038 73.2071 191.581 75.3917C190.125 77.5763 188.911 76.8481 186.484 72.7217C183.814 67.6243 183.814 67.1389 187.212 70.0516C189.639 71.9935 191.824 72.2362 192.552 70.7798C193.523 69.5662 193.038 67.8671 191.581 66.8962C188.426 64.9543 190.853 60.8279 194.737 60.8279C196.436 60.8279 196.193 61.7988 194.009 63.2552ZM33.0786 72.2362C30.4085 74.6635 26.7676 70.2944 28.224 66.6534C29.4376 63.0125 29.9231 63.2552 31.8649 66.8962C33.3213 69.0807 33.564 71.508 33.0786 72.2362ZM217.796 70.0516C219.253 74.4208 214.155 73.4499 212.456 69.0807C211.485 66.6534 212.213 65.6825 213.912 66.168C215.369 66.6534 217.311 68.5953 217.796 70.0516ZM215.854 87.5282C215.854 88.7419 214.641 89.9555 213.184 89.9555C211.971 89.9555 211.485 88.7419 212.213 87.5282C212.942 86.0718 214.155 85.1009 214.883 85.1009C215.369 85.1009 215.854 86.0718 215.854 87.5282Z" fill="black"/>
<path d="M136.967 14.7092C137.938 16.1656 139.394 16.651 140.608 15.9228C142.793 14.4664 146.676 19.0783 146.676 23.2047C146.676 24.4184 148.618 25.8748 151.288 26.3602C153.958 27.0884 155.172 26.3602 153.958 24.6611C153.23 23.2047 151.045 22.7193 149.589 23.6902C147.647 24.9038 147.647 24.1756 149.589 21.5056C152.259 18.5929 151.774 17.3792 146.433 15.1946C138.909 11.5537 135.025 11.5537 136.967 14.7092Z" fill="black"/>
<path d="M163.668 24.4184C164.396 25.632 165.609 26.8457 166.338 26.8457C166.823 26.8457 167.309 25.632 167.309 24.4184C167.309 22.962 166.095 21.9911 164.638 21.9911C163.425 21.9911 162.939 22.962 163.668 24.4184Z" fill="black"/>
<path d="M177.26 38.7394C175.561 39.9531 175.076 41.4095 176.289 42.1377C177.503 42.8659 179.93 42.6231 181.629 41.6522C183.329 40.4386 183.814 38.9822 182.6 38.254C181.387 37.5258 178.959 37.7685 177.26 38.7394Z" fill="black"/>
<path d="M167.308 58.4006C167.308 59.6142 168.522 60.8279 169.978 60.8279C171.192 60.8279 171.677 59.6142 170.949 58.4006C170.221 56.9442 169.007 55.9733 168.279 55.9733C167.794 55.9733 167.308 56.9442 167.308 58.4006Z" fill="black"/>
<path d="M75.7991 36.5548C74.1 38.9821 73.3718 43.1085 74.3427 45.2931C75.3136 48.2059 75.0709 48.9341 73.1291 47.7204C71.43 46.7495 70.2163 46.9922 70.2163 48.2059C70.2163 49.6623 71.9154 51.1186 73.8573 52.0896C76.2846 53.0605 78.9546 50.3905 82.3528 44.0795C84.7801 38.9821 86.2365 34.1275 85.5083 33.1566C82.5955 30.4866 78.7119 31.7002 75.7991 36.5548ZM83.3237 37.7685C82.3528 39.7103 80.8964 41.4094 79.44 41.4094C78.2264 41.4094 77.9837 42.3804 78.7119 43.8367C79.44 45.0504 79.6828 46.264 78.9546 46.264C75.5564 46.264 75.5564 41.4094 78.9546 38.0112C83.5665 33.1566 85.0228 33.1566 83.3237 37.7685Z" fill="black"/>
</svg>
