<svg width="256" height="256" viewBox="0 0 256 256" fill="none" xmlns="http://www.w3.org/2000/svg">
<g id="hair">
<path id="Vector" d="M96.8453 10.0231C93.1307 15.0654 89.9467 20.6385 89.9467 22.2308C89.9467 23.8231 88.62 24.3538 86.7627 23.2923C80.66 19.3115 61.556 19.3115 58.372 23.2923C56.5147 25.4154 52.8 26.4769 49.616 25.4154C46.1667 24.6192 44.5747 25.15 45.636 26.7423C46.6973 28.3346 45.1053 30.1923 42.1867 30.9885C39.268 31.7846 36.88 33.9077 36.88 35.7654C36.88 38.4192 37.676 38.4192 40.064 36.0308C44.84 31.2538 54.1267 32.3154 59.6987 38.4192L64.74 43.9923L52.2693 42.1346C40.3293 40.2769 40.064 40.5423 40.3293 46.9115C40.86 53.0154 41.3907 53.2808 45.1053 49.8308C47.228 47.7077 50.9427 46.1154 52.8 46.1154C55.188 46.1154 54.6573 47.4423 51.208 50.0961C46.9627 53.5461 46.9627 53.8115 50.9427 52.4846C53.596 51.4231 55.4533 52.2192 55.4533 54.0769C55.4533 55.6692 53.3307 56.7308 50.9427 56.2C48.2893 55.9346 44.84 56.2 43.5133 57.2615C41.9213 58.3231 39.0027 58.0577 36.88 56.7308C33.9613 54.8731 33.9613 53.8115 36.6147 50.3615C39.0027 47.4423 39.268 46.1154 37.1453 46.1154C35.5533 46.1154 34.2267 47.4423 34.2267 49.0346C34.2267 50.6269 32.3693 51.1577 29.9813 50.3615C25.736 48.7692 13.2653 60.7115 13 66.8154C13 68.6731 16.4493 66.2846 20.6947 61.5077C24.94 56.7308 29.4507 53.5462 30.512 54.8731C31.5733 55.9346 29.9813 58.5885 26.7973 60.9769C23.6133 63.1 20.96 66.2846 20.96 67.8769C20.96 69.4692 23.8787 68.1423 27.328 64.9577C30.7773 61.7731 34.2267 60.1808 35.288 61.5077C36.084 62.8346 33.1653 67.3462 28.92 71.3269C24.4093 75.5731 20.96 80.35 20.96 81.6769C20.96 83.2692 23.348 81.6769 26.2667 77.9615C32.3693 70.2654 33.1653 73.7154 27.5933 83.2692C25.4707 86.9846 23.8787 94.4154 23.6133 99.7231C23.6133 105.031 22.552 112.462 20.96 116.177C17.776 124.669 20.164 125.465 23.8787 116.973C25.736 112.727 26.0013 115.115 25.2053 127.323C24.4093 136.081 21.2253 149.085 18.3067 155.985C12.204 170.315 11.408 176.154 15.9187 171.642C17.5107 170.05 20.96 161.823 23.8787 153.331C28.92 137.938 29.1853 137.673 27.5933 149.615C26.7973 156.25 22.8173 168.458 19.1027 176.95C13.796 188.627 13 193.138 15.1227 195.262C17.5107 197.65 18.3067 197.385 18.3067 194.465C18.3067 192.077 20.6947 188.096 23.6133 185.442C29.716 180.135 31.0427 173.765 25.2053 178.542C22.2867 181.196 22.552 178.808 26.0013 168.988C29.4507 159.965 30.7773 148.554 31.0427 128.385C31.0427 111.135 30.2467 102.642 28.92 105.827C27.0627 110.073 26.532 108.746 26.532 100.519C26.2667 94.4154 28.3893 86.1885 31.5733 81.1461C34.492 76.6346 36.084 72.6538 35.5533 72.6538C34.7573 72.6538 35.288 70.2654 36.88 67.3461C38.472 64.4269 40.5947 62.3038 41.656 62.5692C42.7173 62.8346 47.4933 62.0385 52.2693 60.9769C58.1067 59.65 60.76 57.5269 60.76 54.0769C60.76 51.1577 62.8827 47.9731 65.2707 46.3808C69.2507 44.2577 69.2507 43.4615 66.0667 39.4808C62.6173 35.5 62.8827 34.1731 68.4547 29.6615C73.496 25.6808 75.3533 25.4154 76.9453 28.0692C78.5373 30.4577 79.3333 30.4577 79.3333 28.3346C79.3333 24.8846 89.1507 26.7423 91.5387 30.7231C92.6 32.3154 91.5387 34.4385 89.6813 35.7654C84.64 38.95 81.1907 38.6846 83.3133 35.5C84.3747 33.9077 82.5173 33.3769 78.8027 33.9077C75.3533 34.7038 71.108 35.2346 69.2507 35.2346C67.3933 35.5 66.5973 36.8269 67.3933 38.1538C68.4547 39.7461 71.3733 40.2769 74.292 39.4808C79.864 37.6231 81.456 42.9308 75.884 45.0538C74.0267 45.5846 72.1693 50.8923 71.904 56.7308C71.3733 64.9577 72.1693 67.3462 76.68 68.6731C79.5987 69.4692 81.9867 71.5923 81.9867 73.1846C81.9867 74.5115 80.1293 75.0423 77.7413 74.2461C75.3533 73.45 72.4347 72.6538 71.108 72.6538C69.7813 72.6538 68.72 68.1423 68.4547 62.5692C68.4547 54.8731 67.924 54.0769 66.332 58.0577C65.0053 60.9769 65.2707 66.0192 66.332 69.4692C70.0467 79.0231 69.2507 90.4346 65.0053 92.0269C59.6987 94.15 49.8813 77.4308 53.0653 72.3885C54.9227 69.4692 56.5147 70 60.76 75.3077C65.0053 80.6154 65.8013 80.8808 64.2093 76.6346C63.4133 73.7154 61.0253 69.2038 59.4333 66.55C56.5147 62.3038 55.984 62.3038 52.2693 66.55C45.1053 75.0423 33.4307 109.277 35.288 116.973C37.4107 124.935 40.3293 123.077 41.656 112.992C42.9827 102.908 44.84 102.112 44.84 111.4C44.84 115.912 43.7787 120.423 42.452 122.015C40.86 123.342 39.5333 134.488 39.268 146.962C39.0027 159.435 37.1453 174.296 35.288 180.135C31.5733 191.281 32.104 195.527 36.3493 187.565C40.86 179.338 44.5747 163.15 42.1867 162.354C40.86 161.823 42.7173 153.331 46.1667 143.512C49.616 133.692 51.4733 126.262 50.1467 127.058C48.82 127.854 46.432 132.365 44.84 137.142C42.452 144.573 42.452 144.042 44.044 133.692C45.1053 127.058 45.9013 113.258 45.9013 102.642C46.1667 81.6769 48.5547 76.1038 52.8 86.9846C56.2493 96.2731 62.352 98.3961 68.72 92.5577C72.9653 88.8423 74.0267 88.5769 74.5573 91.4961C74.5573 93.6192 75.088 96.2731 75.3533 97.8654C75.884 99.1923 76.1493 102.112 76.4147 103.969C76.68 106.623 77.7413 106.623 80.66 103.438C84.3747 99.7231 84.3747 98.6615 80.66 93.0885C76.9453 87.25 77.2107 86.4538 82.252 80.8808C86.7627 76.1038 88.3547 75.5731 90.212 78.4923C91.5387 80.6154 92.6 80.6154 92.6 79.0231C92.6 77.4308 90.7427 74.5115 88.3547 72.3885C85.7013 70.2654 84.64 66.0192 85.1707 60.1808C85.7013 54.8731 85.1707 51.4231 83.3133 51.4231C81.456 51.4231 80.66 54.8731 81.1907 59.9154C81.9867 66.55 81.7213 67.8769 79.5987 64.6923C76.4147 60.1808 75.6187 47.9731 78.5373 45.3192C81.456 42.1346 92.0693 54.0769 90.7427 59.1192C90.212 61.7731 91.5387 65.2231 93.6613 67.0808C98.968 71.5923 98.968 79.0231 93.6613 87.25C91.2733 90.7 90.212 94.9462 91.2733 96.5385C93.9267 100.785 97.1107 97.6 99.2333 88.0462C101.091 79.5538 101.091 79.5538 102.948 85.9231C104.54 91.4961 105.336 90.1692 106.928 78.4923C108.52 68.6731 107.989 63.3654 105.867 60.7115C103.479 57.7923 103.213 56.7308 105.601 56.7308C107.459 56.7308 107.989 55.4038 106.928 53.8115C105.867 51.6885 104.54 51.6885 102.417 53.8115C100.56 55.6692 100.56 58.5885 102.683 63.3654C106.132 70.7962 106.928 80.0846 104.009 76.9C100.56 73.45 95.5187 55.4038 96.8453 50.8923C98.7027 44.7885 107.193 42.4 113.827 46.1154C117.011 47.7077 120.725 48.5038 122.583 47.7077C124.44 47.1769 123.909 46.3808 121.256 46.3808C118.337 46.1154 117.276 44.5231 118.337 40.5423C119.133 37.6231 121.256 35.7654 123.379 36.5615C125.236 37.3577 127.624 36.8269 128.42 35.5C129.481 33.9077 131.339 32.8461 132.931 32.8461C134.523 32.8461 133.992 34.9692 131.604 37.6231C128.951 40.2769 127.093 47.1769 126.828 53.0154C126.828 58.5885 126.032 61.7731 125.236 59.9154C124.705 58.3231 122.583 56.7308 120.991 56.7308C119.133 56.7308 116.215 54.3423 114.357 51.4231C112.5 48.5038 109.847 46.1154 107.989 46.1154C106.397 46.1154 106.928 47.9731 109.316 50.8923C111.969 53.5461 113.827 57.2615 113.827 59.1192C113.827 60.9769 114.888 61.7731 115.949 60.9769C117.276 60.1808 121.521 62.8346 125.767 66.8154C130.012 70.7962 134.788 73.7154 136.115 73.1846C137.441 72.6538 137.707 76.6346 136.911 81.9423C135.849 88.3115 136.38 90.7 138.237 89.6385C141.952 87.25 139.033 67.8769 133.992 62.3038C127.093 54.8731 128.685 50.6269 137.707 51.9538C142.217 52.75 146.463 52.2192 147.259 50.8923C148.055 49.8308 146.728 48.7692 144.605 48.7692C142.483 48.7692 140.095 46.6462 139.564 43.9923C138.503 39.7462 138.237 39.7462 137.972 43.9923C137.707 48.7692 134.788 50.0962 131.604 47.1769C128.951 44.5231 134.788 35.5 139.033 35.5C141.156 35.5 144.605 38.1538 146.728 41.3385C149.116 44.5231 150.973 45.85 150.973 43.9923C150.973 42.4 152.035 40.8077 153.627 40.8077C155.219 40.8077 155.219 43.1962 153.627 47.1769C152.3 50.6269 152.035 54.3423 153.096 55.6692C154.157 56.7308 153.361 56.7308 151.769 55.6692C149.647 54.3423 148.32 55.4038 148.32 58.3231C148.32 61.5077 147.259 62.0385 145.136 60.1808C141.156 57.2615 132.4 53.8115 132.4 55.1385C132.4 55.6692 136.645 58.5885 141.687 61.7731C150.177 66.55 150.973 66.8154 150.973 62.5692C150.973 58.5885 151.504 58.5885 153.627 62.0385C157.341 67.8769 156.811 80.8808 152.565 89.3731L148.585 96.5385L154.953 92.0269C163.975 85.3923 165.036 80.0846 160.26 68.4077C155.484 56.9961 157.076 37.6231 163.179 32.5808C165.301 30.9885 166.363 28.6 165.567 27.5385C164.24 25.4154 174.853 15.5961 180.956 13.4731C182.813 12.9423 183.344 11.6154 182.548 10.5538C180.691 8.69616 160.525 21.1692 159.995 24.3538C158.403 32.3154 155.219 38.1538 152.565 38.1538C146.463 38.1538 145.932 34.7038 150.973 28.3346C153.627 24.8846 155.219 20.1077 154.423 17.9846C152.035 11.6154 148.851 13.7385 150.443 20.9038C151.769 28.3346 149.381 29.1308 142.483 23.8231C138.768 21.1692 138.503 19.5769 141.156 16.3923C142.748 14.0038 146.197 11.6154 148.32 10.8192C151.239 9.75769 151.239 9.22691 147.524 9.22691C140.36 8.96153 127.624 21.9654 128.951 27.8038C130.543 33.6423 125.501 34.4385 115.153 29.6615L108.52 26.7423L114.357 20.3731C121.787 12.4115 124.971 12.6769 121.787 21.1692C118.337 29.9269 118.337 30.1923 123.113 30.1923C125.501 30.1923 127.093 28.6 126.828 26.7423C125.767 17.7192 127.624 12.1462 133.196 9.49231C136.38 7.9 137.441 6.57307 135.319 6.57307C129.216 6.30769 105.867 20.1077 105.867 24.0885C105.867 26.2115 104.009 27.5385 101.356 27.0077C94.988 25.6808 96.58 15.0654 104.009 6.83846C106.928 3.65384 108.255 1 106.663 1C105.071 1 100.825 4.98076 96.8453 10.0231ZM66.5973 27.8038C63.4133 30.7231 59.4333 32.3154 57.576 31.2538C54.1267 29.1308 62.0867 22.2308 68.4547 22.2308C71.3733 22.2308 70.8427 23.5577 66.5973 27.8038ZM145.667 30.9885C145.667 32.3154 143.809 32.5808 141.421 31.7846C139.033 30.9885 136.115 30.1923 134.788 30.1923C133.461 30.1923 132.4 28.3346 132.4 26.2115C132.4 23.0269 133.461 22.7615 139.033 25.4154C142.748 27.0077 145.667 29.3962 145.667 30.9885ZM104.275 34.1731C105.071 36.2962 104.805 38.1538 103.479 38.1538C102.152 38.1538 99.764 36.2962 97.9067 34.1731C95.2533 30.9885 95.2533 30.1923 98.7027 30.1923C100.825 30.1923 103.213 32.05 104.275 34.1731ZM114.888 34.4385C117.807 41.8692 116.48 44.7885 112.5 39.7462C110.377 36.8269 108.52 33.6423 108.52 32.3154C108.52 28.6 113.296 29.9269 114.888 34.4385ZM97.9067 42.1346C97.9067 47.1769 90.7427 49.0346 87.2933 44.7885C85.1707 42.1346 85.436 40.5423 89.1507 38.6846C94.4573 35.5 97.9067 36.8269 97.9067 42.1346ZM79.3333 80.8808C79.3333 82.2077 78.272 83.2692 76.68 83.2692C75.3533 83.2692 74.0267 81.4115 74.0267 79.0231C74.0267 76.9 75.3533 75.8385 76.68 76.6346C78.272 77.4308 79.3333 79.2885 79.3333 80.8808Z" fill="black"/>
<path id="Vector_2" d="M35.8187 83.5346C27.8587 98.9269 27.328 101.05 32.6347 96.8039C36.084 93.8846 45.9013 70 43.7787 70C43.248 70 39.7987 76.1039 35.8187 83.5346Z" fill="black"/>
<path id="Vector_3" d="M167.689 33.3769C160.26 37.0923 158.668 54.8731 164.505 68.4077C166.097 72.3885 166.363 70.7962 165.301 63.3654C163.975 54.8731 164.24 53.2808 166.893 55.9346C170.608 59.3846 171.404 75.5731 168.485 85.9231C166.893 90.9654 167.159 91.4962 169.281 88.5769C170.873 86.4539 172.2 81.6769 172.2 77.9616C172.2 73.1846 172.996 72.3885 175.119 74.5116C177.507 76.9 177.241 79.8192 175.119 86.4539C173.261 91.7616 172.996 94.15 174.853 92.2923C176.445 90.7 178.568 85.9231 179.895 81.4116C181.752 75.0423 181.221 72.3885 177.241 68.9385C174.588 66.55 172.2 63.3654 172.2 61.5077C172.465 59.65 174.588 60.7116 177.507 64.1616C180.425 67.6116 183.875 69.7346 185.467 68.6731C186.793 67.8769 188.12 68.1423 188.12 69.7346C188.12 71.0616 187.059 72.9192 185.732 73.7154C182.813 75.5731 189.977 91.2308 193.692 91.2308C195.284 91.2308 195.284 89.3731 193.427 86.1885C192.1 83.2692 190.773 77.6962 190.773 73.7154C190.773 62.8346 197.672 70.2654 200.06 84.0654C201.652 94.15 202.183 94.6808 204.305 89.1077C205.632 85.6577 205.897 81.6769 205.101 80.35C202.979 76.9 206.693 67.0808 209.612 68.6731C210.939 69.7346 212 71.5923 212 72.9192C212 74.5116 210.939 75.0423 209.612 73.9808C208.02 73.1846 208.02 75.8385 209.612 81.1462C210.939 85.9231 212 92.2923 211.735 95.2116C211.469 99.4577 211.204 99.1923 209.612 93.8846C207.755 87.5154 207.489 87.5154 205.897 92.8231C204.836 96.0077 205.101 101.581 206.428 105.562C208.02 109.277 208.285 112.462 207.224 112.462C206.163 112.462 206.693 113.523 208.285 114.585C209.877 115.646 212 121.219 213.061 127.058C214.388 134.223 214.123 136.346 212.265 133.958C209.612 129.977 209.877 134.754 213.592 164.742C214.388 171.112 215.98 176.154 217.307 176.154C218.633 176.154 220.225 178.277 220.756 180.665C221.817 184.646 222.083 184.381 222.348 179.869C222.348 176.95 221.552 173.5 220.225 171.908C218.899 170.581 217.041 162.354 215.98 153.596C213.592 132.631 218.103 136.877 224.205 161.558C226.593 171.642 229.512 182.523 230.839 185.442C232.961 189.954 232.961 189.954 231.635 184.646C230.839 181.196 231.369 177.215 232.696 175.358C234.819 172.969 233.492 168.192 228.981 159.169C225.267 152.004 223.144 145.635 223.675 144.838C224.471 144.042 226.328 146.431 227.92 149.881C230.043 154.923 230.308 153.596 228.981 143.246C228.185 136.081 226.328 127.854 225.001 124.669C223.409 120.688 223.144 122.546 224.205 130.773C225.267 139 225.001 141.919 222.879 140.592C221.287 139.531 219.96 134.754 219.96 129.712C219.96 124.669 218.899 120.158 217.572 119.362C214.123 117.238 209.081 101.846 211.735 101.846C213.061 101.846 214.653 105.296 215.715 109.808C216.511 114.054 218.368 117.769 219.695 117.769C221.287 117.769 220.491 113.523 218.368 108.215C216.245 102.908 214.919 96.0077 215.449 92.8231C216.245 88.0462 216.776 88.3116 218.633 95.2116C219.695 99.4577 222.879 106.092 225.267 109.808C227.655 113.523 229.247 117.769 228.716 119.096C228.185 120.688 231.369 125.465 235.88 129.712C245.167 138.469 246.228 136.612 238.268 125.2C235.084 120.954 233.227 116.708 234.023 115.912C234.819 115.115 232.961 110.073 229.512 104.765C226.328 99.4577 221.287 89.6385 218.633 82.7385C216.245 75.8385 211.735 68.4077 209.347 66.0192C206.693 63.6308 205.101 59.9154 205.632 58.0577C206.428 56.2 204.04 52.2192 200.325 49.3C194.488 44.7885 194.223 43.7269 197.672 42.4C200.06 41.3385 203.775 42.1346 205.632 43.7269C208.285 45.85 209.347 45.85 209.347 43.9923C209.347 35.5 186.793 34.1731 181.221 42.1346C179.099 44.7885 176.711 46.1154 175.649 45.0539C172.731 42.4 184.936 32.8462 189.181 34.4385C191.039 35.2346 195.284 34.4385 198.999 32.8462C204.571 30.4577 204.04 30.1923 194.753 30.9885C188.916 31.5192 181.752 33.1116 179.099 34.1731C175.384 35.7654 174.588 35.5 175.915 33.3769C178.303 29.6616 175.649 29.6616 167.689 33.3769ZM174.853 37.0923C174.853 37.8885 173.527 40.8077 172.2 43.7269C170.077 47.7077 170.343 48.7692 173.527 48.7692C175.649 48.7692 177.507 49.8308 177.507 51.4231C177.507 52.75 179.099 53.2808 180.956 52.75C182.813 51.9539 184.405 53.8116 184.405 58.0577C184.936 65.7539 184.671 66.0192 179.629 61.2423C177.507 59.65 173.527 56.7308 170.873 55.1385C166.097 52.4846 163.444 42.6654 166.097 37.3577C167.424 35.2346 174.853 34.7039 174.853 37.0923ZM189.447 46.3808C188.651 50.0962 189.447 51.4231 191.835 50.6269C196.08 49.0346 206.163 55.4039 203.509 58.0577C202.713 59.1192 199.264 58.5885 196.345 56.7308C193.161 55.1385 190.773 54.8731 190.773 56.4654C190.773 57.7923 192.631 59.3846 194.753 60.4462C196.876 61.2423 198.733 63.1 198.733 64.6923C198.733 71.3269 187.324 64.4269 186.793 57.5269C186.793 54.8731 185.732 51.1577 184.405 49.3C182.283 45.85 184.405 40.8077 188.12 40.8077C189.447 40.8077 189.977 43.1962 189.447 46.3808Z" fill="black"/>
<path id="Vector_4" d="M198.999 99.1923C198.999 101.315 200.591 109.808 202.713 117.769C204.571 125.731 206.428 129.977 206.428 127.058C206.428 124.138 204.836 115.646 202.979 108.481C200.856 101.05 199.264 97.0692 198.999 99.1923Z" fill="black"/>
<path id="Vector_5" d="M34.7573 140.327C34.7573 144.573 35.288 146.165 36.084 143.512C36.6147 141.123 36.6147 137.408 36.084 135.55C35.288 133.958 34.7573 135.815 34.7573 140.327Z" fill="black"/>
<path id="Vector_6" d="M233.492 178.808C233.492 180.931 234.553 185.177 235.88 188.096C238.268 193.404 238.268 193.404 238.268 188.096C238.268 185.177 237.207 180.931 235.88 178.808C233.492 175.358 233.227 175.358 233.492 178.808Z" fill="black"/>
</g>
</svg>
