<svg width="256" height="256" viewBox="0 0 256 256" fill="none" xmlns="http://www.w3.org/2000/svg">
<g id="Frame 26">
<g id="Group 39">
<path id="Vector" d="M170.785 182.425C170.785 183.515 172.311 185.26 174.274 185.914C176.455 186.786 177.327 186.132 176.891 184.605C175.801 181.334 170.785 179.59 170.785 182.425Z" fill="black"/>
<path id="Vector_2" d="M90.0972 187.004C88.7887 189.621 88.5706 191.584 89.8791 191.584C92.0598 191.584 95.1129 185.042 93.5864 183.515C93.1502 182.861 91.6237 184.605 90.0972 187.004Z" fill="black"/>
<path id="Vector_3" d="M163.589 189.621C164.461 192.456 165.551 193.328 166.86 192.02C169.259 189.621 167.514 185.042 164.243 185.042C163.371 185.042 162.934 187.004 163.589 189.621Z" fill="black"/>
<path id="Vector_4" d="M97.2936 190.493C95.3309 195.727 97.5117 196.382 100.565 191.584C102.309 188.749 102.309 187.222 101.001 187.222C99.6924 187.222 98.1659 188.749 97.2936 190.493Z" fill="black"/>
<path id="Vector_5" d="M105.362 191.148C101.219 192.674 107.325 199.871 114.958 202.488C126.952 206.413 152.903 201.179 159.227 193.328C161.19 190.93 156.61 190.493 134.584 190.493C119.755 190.493 106.671 190.711 105.362 191.148ZM142.435 194.637C156.61 192.238 157.264 195.073 143.307 198.344C131.749 200.961 116.92 200.743 111.687 198.126C104.054 193.983 107.325 192.238 118.447 194.637C125.643 196.163 133.494 196.163 142.435 194.637Z" fill="black"/>
</g>
</g>
</svg>
