<svg width="256" height="256" viewBox="0 0 256 256" fill="none" xmlns="http://www.w3.org/2000/svg">
<g id="Frame 24">
<path id="Vector" d="M127.512 137.586C126.876 138.434 125.394 143.305 124.123 148.388C122.217 154.741 120.099 158.13 116.499 159.4C110.992 161.518 105.91 169.143 108.875 170.837C109.933 171.472 111.204 170.202 111.84 167.872C112.475 165.542 115.44 162.789 118.405 161.73C122.429 160.036 124.547 156.859 126.876 148.599C129.842 138.434 130.265 133.139 127.512 137.586Z" fill="black"/>
<path id="Vector_2" d="M132.383 159.612C129.841 161.307 130.477 161.518 135.136 160.46C138.948 159.824 142.549 160.248 144.667 161.942C147.42 164.272 147.632 164.272 146.784 161.518C145.514 157.706 136.619 156.436 132.383 159.612Z" fill="black"/>
<path id="Vector_3" d="M118.617 167.872C117.981 168.931 118.829 169.99 120.523 169.99C122.217 169.99 124.335 168.931 124.97 167.872C125.606 166.601 124.759 165.754 123.064 165.754C121.37 165.754 119.252 166.601 118.617 167.872Z" fill="black"/>
<path id="Vector_4" d="M132.806 168.084C133.23 169.355 134.501 170.202 135.56 170.202C136.619 170.202 137.889 169.355 138.313 168.084C138.736 166.813 137.466 165.754 135.56 165.754C133.654 165.754 132.383 166.813 132.806 168.084Z" fill="black"/>
</g>
</svg>
