<svg width="256" height="256" viewBox="0 0 256 256" fill="none" xmlns="http://www.w3.org/2000/svg">
<g id="Frame 22">
<path id="Vector" d="M128.675 141.043C120.022 149.078 114.254 159.79 115.078 167.001C115.902 175.035 121.259 179.156 126.615 175.859C130.529 173.387 132.795 160.615 129.087 160.615C127.645 160.615 127.233 162.263 128.057 164.735C129.499 169.061 126.203 175.035 122.701 175.035C121.671 175.035 119.816 172.769 118.374 170.091C116.52 165.971 116.932 163.293 120.847 156.082C123.319 151.138 127.851 145.164 130.735 142.691C133.825 140.425 135.885 137.747 135.267 137.129C134.649 136.511 131.559 138.159 128.675 141.043Z" fill="black"/>
</g>
</svg>
